<svg width="40" height="40" viewBox="0 0 40 40" fill="none" xmlns="http://www.w3.org/2000/svg">
<g clip-path="url(#clip0_5_862)">
<path d="M20 10.9092C14.9818 10.9092 10.9091 14.9819 10.9091 20.0001C10.9091 25.0182 14.9818 29.091 20 29.091C25.0182 29.091 29.0909 25.0182 29.0909 20.0001C29.0909 14.9819 25.0182 10.9092 20 10.9092ZM1.81818 21.8182H5.45455C6.45455 21.8182 7.27273 21.0001 7.27273 20.0001C7.27273 19.0001 6.45455 18.1819 5.45455 18.1819H1.81818C0.818182 18.1819 0 19.0001 0 20.0001C0 21.0001 0.818182 21.8182 1.81818 21.8182ZM34.5455 21.8182H38.1818C39.1818 21.8182 40 21.0001 40 20.0001C40 19.0001 39.1818 18.1819 38.1818 18.1819H34.5455C33.5455 18.1819 32.7273 19.0001 32.7273 20.0001C32.7273 21.0001 33.5455 21.8182 34.5455 21.8182ZM18.1818 1.81824V5.45461C18.1818 6.45461 19 7.27279 20 7.27279C21 7.27279 21.8182 6.45461 21.8182 5.45461V1.81824C21.8182 0.818243 21 6.10352e-05 20 6.10352e-05C19 6.10352e-05 18.1818 0.818243 18.1818 1.81824ZM18.1818 34.5455V38.1819C18.1818 39.1819 19 40.0001 20 40.0001C21 40.0001 21.8182 39.1819 21.8182 38.1819V34.5455C21.8182 33.5455 21 32.7273 20 32.7273C19 32.7273 18.1818 33.5455 18.1818 34.5455ZM9.07273 6.50915C8.90452 6.3406 8.70472 6.20688 8.48477 6.11564C8.26482 6.0244 8.02903 5.97744 7.79091 5.97744C7.55278 5.97744 7.317 6.0244 7.09705 6.11564C6.8771 6.20688 6.6773 6.3406 6.50909 6.50915C6.34054 6.67736 6.20682 6.87716 6.11558 7.09711C6.02434 7.31706 5.97738 7.55285 5.97738 7.79097C5.97738 8.02909 6.02434 8.26488 6.11558 8.48483C6.20682 8.70478 6.34054 8.90458 6.50909 9.07279L8.43636 11.0001C9.14545 11.7092 10.3091 11.7092 11 11.0001C11.6909 10.291 11.7091 9.12733 11 8.43642L9.07273 6.50915ZM31.5636 29.0001C31.3954 28.8315 31.1956 28.6978 30.9757 28.6065C30.7557 28.5153 30.5199 28.4683 30.2818 28.4683C30.0437 28.4683 29.8079 28.5153 29.588 28.6065C29.368 28.6978 29.1682 28.8315 29 29.0001C28.8315 29.1683 28.6977 29.3681 28.6065 29.588C28.5152 29.808 28.4683 30.0438 28.4683 30.2819C28.4683 30.52 28.5152 30.7558 28.6065 30.9757C28.6977 31.1957 28.8315 31.3955 29 31.5637L30.9273 33.491C31.6364 34.2001 32.8 34.2001 33.4909 33.491C33.6595 33.3228 33.7932 33.123 33.8844 32.903C33.9757 32.6831 34.0226 32.4473 34.0226 32.2092C34.0226 31.971 33.9757 31.7352 33.8844 31.5153C33.7932 31.2953 33.6595 31.0955 33.4909 30.9273L31.5636 29.0001ZM33.4909 9.07279C33.6595 8.90458 33.7932 8.70478 33.8844 8.48483C33.9757 8.26488 34.0226 8.02909 34.0226 7.79097C34.0226 7.55285 33.9757 7.31706 33.8844 7.09711C33.7932 6.87716 33.6595 6.67736 33.4909 6.50915C33.3227 6.3406 33.1229 6.20688 32.903 6.11564C32.683 6.0244 32.4472 5.97744 32.2091 5.97744C31.971 5.97744 31.7352 6.0244 31.5152 6.11564C31.2953 6.20688 31.0955 6.3406 30.9273 6.50915L29 8.43642C28.2909 9.14552 28.2909 10.3092 29 11.0001C29.7091 11.691 30.8727 11.7092 31.5636 11.0001L33.4909 9.07279ZM11 31.5637C11.1686 31.3955 11.3023 31.1957 11.3935 30.9757C11.4848 30.7558 11.5317 30.52 11.5317 30.2819C11.5317 30.0438 11.4848 29.808 11.3935 29.588C11.3023 29.3681 11.1686 29.1683 11 29.0001C10.8318 28.8315 10.632 28.6978 10.412 28.6065C10.1921 28.5153 9.95631 28.4683 9.71818 28.4683C9.48006 28.4683 9.24427 28.5153 9.02432 28.6065C8.80437 28.6978 8.60457 28.8315 8.43636 29.0001L6.50909 30.9273C5.8 31.6364 5.8 32.8001 6.50909 33.491C7.21818 34.1819 8.38182 34.2001 9.07273 33.491L11 31.5637Z" fill="white"/>
</g>
<defs>
<clipPath id="clip0_5_862">
<rect width="40" height="40" fill="white"/>
</clipPath>
</defs>
</svg>
